<?xml version="1.0" standalone="no"?>
<!DOCTYPE svg PUBLIC "-//W3C//DTD SVG 20010904//EN"
 "http://www.w3.org/TR/2001/REC-SVG-20010904/DTD/svg10.dtd">
<svg version="1.0" xmlns="http://www.w3.org/2000/svg"
 width="700.000000pt" height="700.000000pt" viewBox="0 0 700.000000 700.000000"
 preserveAspectRatio="xMidYMid meet">
<metadata>
Created by potrace 1.14, written by Peter Selinger 2001-2017
</metadata>
<g transform="translate(0.000000,700.000000) scale(0.100000,-0.100000)"
fill="#000000" stroke="none">
<path d="M3278 6996 c-1 -2 -42 -6 -89 -10 -47 -4 -95 -8 -105 -10 -10 -2 -45
-7 -78 -11 -67 -8 -105 -14 -126 -20 -8 -3 -32 -7 -54 -11 -55 -8 -62 -10
-156 -34 -47 -12 -95 -24 -107 -26 -39 -7 -261 -84 -367 -126 -111 -44 -353
-161 -431 -208 -27 -17 -58 -33 -67 -36 -10 -4 -18 -10 -18 -15 0 -5 -5 -9
-10 -9 -9 0 -115 -70 -244 -160 -47 -33 -219 -174 -278 -228 -455 -418 -778
-915 -972 -1494 -31 -94 -79 -267 -91 -329 -3 -13 -11 -58 -20 -99 -29 -147
-36 -199 -52 -370 -15 -162 -8 -590 12 -712 2 -13 7 -45 10 -73 4 -27 8 -62
10 -76 3 -24 29 -157 39 -204 73 -336 239 -751 417 -1038 29 -49 59 -96 64
-106 77 -131 292 -395 461 -565 361 -363 848 -670 1307 -824 138 -47 228 -28
276 58 l24 43 -2 346 c-1 190 -3 346 -4 347 -1 1 -24 -2 -50 -7 -101 -18 -127
-21 -307 -24 -204 -4 -301 9 -436 60 -145 55 -278 170 -340 296 -18 35 -53
108 -79 161 -53 110 -138 242 -208 322 -26 30 -85 79 -131 109 -169 112 -192
191 -61 214 221 39 424 -79 615 -357 112 -163 196 -244 321 -306 180 -91 433
-89 652 5 41 18 46 23 52 63 11 65 12 69 29 123 27 83 85 190 133 244 25 29
43 54 41 57 -3 2 -25 6 -49 9 -47 4 -92 10 -179 26 -87 15 -93 16 -217 49
-400 107 -672 289 -872 584 -103 151 -200 415 -230 631 -6 39 -12 86 -15 105
-16 109 -22 339 -12 461 6 86 34 220 62 306 28 86 111 266 125 271 5 2 9 8 9
14 0 13 54 91 111 158 45 53 47 57 34 86 -7 17 -20 63 -29 101 -52 231 -32
506 54 735 19 51 25 58 56 64 37 7 131 -1 204 -17 177 -38 418 -151 672 -312
52 -34 54 -34 98 -21 25 7 56 16 70 18 22 4 134 27 200 41 14 3 52 8 85 11 33
4 63 8 67 10 43 25 692 25 823 0 11 -2 67 -11 125 -20 58 -9 157 -29 221 -45
101 -24 119 -26 135 -14 109 81 374 223 519 277 161 61 370 95 412 68 7 -5 24
-42 38 -83 23 -65 32 -103 61 -234 4 -16 8 -100 10 -185 3 -160 -7 -242 -44
-365 l-18 -60 52 -65 c89 -112 131 -183 207 -351 26 -56 66 -206 81 -304 14
-84 16 -463 3 -520 -4 -19 -17 -102 -22 -152 -2 -11 -6 -30 -9 -41 -4 -11 -8
-33 -10 -49 -2 -16 -14 -63 -26 -104 -131 -453 -396 -750 -820 -921 -98 -39
-259 -89 -335 -104 -11 -2 -45 -9 -75 -15 -30 -5 -64 -12 -75 -14 -32 -6 -91
-14 -147 -21 -29 -4 -55 -8 -57 -10 -2 -2 10 -18 28 -34 73 -70 143 -215 178
-365 16 -72 18 -137 18 -660 1 -428 4 -589 13 -616 24 -69 95 -110 182 -104
26 2 102 25 171 50 1144 434 1987 1450 2203 2655 14 81 17 101 32 215 3 27 8
61 10 75 9 49 11 526 4 605 -13 132 -21 202 -25 227 -3 13 -8 43 -11 68 -3 25
-9 61 -14 80 -5 19 -12 51 -15 70 -9 53 -62 261 -75 295 -7 17 -14 40 -16 52
-6 32 -91 254 -136 357 -254 579 -704 1115 -1239 1477 -70 47 -69 47 -174 110
-344 209 -853 394 -1225 444 -19 3 -46 7 -60 10 -13 2 -52 7 -86 11 -33 3 -74
8 -90 10 -32 5 -540 14 -546 10z"/>
</g>
</svg>
